# Blender v3.0.0 OBJ File: ''
# www.blender.org
o 4
v 0.033944 -0.010703 0.000000
v 0.011644 -0.066824 0.000000
v -0.006810 0.010616 0.000000
v -0.090380 0.021183 0.000000
v -0.024701 0.035301 0.000000
v 0.027158 0.015701 0.000000
v 0.062881 -0.049612 0.000000
v 0.045082 0.049269 0.000000
v -0.006810 0.010616 0.050000
v 0.011644 -0.066824 0.050000
v 0.033944 -0.010703 0.050000
v -0.090380 0.021183 0.050000
v 0.027158 0.015701 0.050000
v -0.024701 0.035301 0.050000
v 0.062881 -0.049612 0.050000
v 0.045082 0.049269 0.050000
vn 0.0000 0.0000 -1.0000
vn -0.0000 0.0000 1.0000
vn 0.9685 0.2489 0.0000
vn 0.8024 0.5968 0.0000
vn 0.3184 -0.9479 0.0000
vn -0.6532 -0.7572 0.0000
vn 0.1254 0.9921 0.0000
vn -0.8097 -0.5868 0.0000
vn 0.8821 -0.4710 0.0000
vn -0.1963 0.9806 0.0000
s off
f 1//1 2//1 3//1
f 4//1 3//1 2//1
f 5//1 6//1 3//1
f 2//1 1//1 7//1
f 5//1 8//1 6//1
f 3//1 6//1 1//1
f 9//2 10//2 11//2
f 10//2 9//2 12//2
f 9//2 13//2 14//2
f 15//2 11//2 10//2
f 13//2 16//2 14//2
f 11//2 13//2 9//2
f 13//3 11//3 6//3
f 6//3 11//3 1//3
f 11//4 15//4 1//4
f 1//4 15//4 7//4
f 15//5 10//5 7//5
f 7//5 10//5 2//5
f 10//6 12//6 2//6
f 2//6 12//6 4//6
f 12//7 9//7 4//7
f 4//7 9//7 3//7
f 9//8 14//8 3//8
f 3//8 14//8 5//8
f 16//9 13//9 8//9
f 8//9 13//9 6//9
f 14//10 16//10 5//10
f 5//10 16//10 8//10
